<?xml version="1.0" encoding="UTF-8"?>
<!DOCTYPE svg PUBLIC "-//W3C//DTD SVG 1.1//EN" "http://www.w3.org/Graphics/SVG/1.1/DTD/svg11.dtd">
<!-- Creator: CorelDRAW -->
<svg xmlns="http://www.w3.org/2000/svg" xml:space="preserve" width="99.4508mm" height="99.451mm" version="1.1" shape-rendering="geometricPrecision" text-rendering="geometricPrecision" image-rendering="optimizeQuality" fill-rule="evenodd" clip-rule="evenodd"
viewBox="0 0 3485502.4 3485509.4"
 xmlns:xlink="http://www.w3.org/1999/xlink"
 xmlns:xodm="http://www.corel.com/coreldraw/odm/2003">
 <g id="Layer_x0020_1">
  <metadata id="CorelCorpID_0Corel-Layer"/>
  <g id="_1981288714352">
   <g>
    <path fill="#A9B7C6" d="M883740.4 3460779.9l-859010.8 0 0 -1718021.7 859010.8 0 0 1718021.7zm-859010.8 -525712.6l859010.8 0 -859010.8 0zm262852.8 525712.6l0 -1718021.7 0 1718021.7z"/>
    <g>
     <path id="_1" fill="#A9B7C6" d="M883740.4 3460779.9l-859010.8 0 0 -1718021.7 859010.8 0 0 1718021.7zm-859010.8 -525712.6l859010.8 0 -859010.8 0zm262852.8 525712.6l0 -1718021.7 0 1718021.7z"/>
     <path id="_1_0" fill="none" stroke="black" stroke-width="49455.5" stroke-miterlimit="22.9256" d="M883740.4 3460779.9l-859010.8 0 0 -1718021.7 859010.8 0 0 1718021.7zm-859010.8 -525712.6l859010.8 0m-596158.1 525712.6l0 -1718021.7"/>
    </g>
   </g>
   <g>
    <path fill="#A9B7C6" d="M883740.4 24729.5l-859010.8 0 0 1718021.7 859010.8 0 0 -1718021.7zm-859010.8 525712.6l859010.8 0 -859010.8 0zm262852.8 -525712.6l0 1718021.7 0 -1718021.7z"/>
    <g>
     <path id="_1_0_1" fill="#A9B7C6" d="M883740.4 24729.5l-859010.8 0 0 1718021.7 859010.8 0 0 -1718021.7zm-859010.8 525712.6l859010.8 0 -859010.8 0zm262852.8 -525712.6l0 1718021.7 0 -1718021.7z"/>
     <path id="_1_2" fill="none" stroke="black" stroke-width="49455.5" stroke-miterlimit="22.9256" d="M883740.4 24729.5l-859010.8 0 0 1718021.7 859010.8 0 0 -1718021.7zm-859010.8 525712.6l859010.8 0m-596158.1 -525712.6l0 1718021.7"/>
    </g>
   </g>
   <g>
    <path fill="#A9B7C6" d="M883740.4 24729.5l2577032.5 0 0 1718021.7 -2577032.5 0 0 -1718021.7zm2577032.5 525712.6l-2577032.5 0 2577032.5 0zm-788568.9 -525712.6l0 1718021.7 0 -1718021.7z"/>
    <g>
     <path id="_1_1" fill="#A9B7C6" d="M883740.4 24729.5l2577032.5 0 0 1718021.7 -2577032.5 0 0 -1718021.7zm2577032.5 525712.6l-2577032.5 0 2577032.5 0zm-788568.9 -525712.6l0 1718021.7 0 -1718021.7z"/>
     <path id="_1_3" fill="none" stroke="black" stroke-width="49455.5" stroke-miterlimit="22.9256" d="M883740.4 24729.5l2577032.5 0 0 1718021.7 -2577032.5 0 0 -1718021.7zm2577032.5 525712.6l-2577032.5 0m1788463.7 -525712.6l0 1718021.7"/>
    </g>
   </g>
   <g>
    <path fill="#A9B7C6" d="M883740.4 3460772.9l2577032.5 0 0 -1718021.7 -2577032.5 0 0 1718021.7zm2577032.5 -525716.1l-2577032.5 0 2577032.5 0zm-788568.9 525716.1l0 -1718021.7 0 1718021.7z"/>
    <g>
     <path id="_1_2_4" fill="#A9B7C6" d="M883740.4 3460772.9l2577032.5 0 0 -1718021.7 -2577032.5 0 0 1718021.7zm2577032.5 -525716.1l-2577032.5 0 2577032.5 0zm-788568.9 525716.1l0 -1718021.7 0 1718021.7z"/>
     <path id="_1_5" fill="none" stroke="black" stroke-width="49455.5" stroke-miterlimit="22.9256" d="M883740.4 3460772.9l2577032.5 0 0 -1718021.7 -2577032.5 0 0 1718021.7zm2577032.5 -525716.1l-2577032.5 0m1788463.7 525716.1l0 -1718021.7"/>
    </g>
   </g>
  </g>
 </g>
</svg>
