<?xml version="1.0" encoding="UTF-8"?>
<!DOCTYPE svg PUBLIC "-//W3C//DTD SVG 1.1//EN" "http://www.w3.org/Graphics/SVG/1.1/DTD/svg11.dtd">
<!-- Creator: CorelDRAW -->
<svg xmlns="http://www.w3.org/2000/svg" xml:space="preserve" width="99.451mm" height="99.4511mm" version="1.1" style="shape-rendering:geometricPrecision; text-rendering:geometricPrecision; image-rendering:optimizeQuality; fill-rule:evenodd; clip-rule:evenodd"
viewBox="0 0 4590.18 4590.19"
 xmlns:xlink="http://www.w3.org/1999/xlink"
 xmlns:xodm="http://www.corel.com/coreldraw/odm/2003">
 <defs>
  <style type="text/css">
   <![CDATA[
    .str0 {stroke:black;stroke-width:65.13;stroke-miterlimit:22.9256}
    .fil1 {fill:none}
    .fil0 {fill:#509B89}
   ]]>
  </style>
 </defs>
 <g id="Layer_x0020_1">
  <metadata id="CorelCorpID_0Corel-Layer"/>
  <g>
   <path class="fil0" d="M1163.83 4557.62l-1131.26 0 0 -2262.52 1131.26 0 0 2262.52zm-1131.26 -692.33l1131.26 0 -1131.26 0zm346.16 692.33l0 -2262.52 0 2262.52z"/>
   <path id="_1" class="fil1 str0" d="M1163.83 4557.62l-1131.26 0 0 -2262.52 1131.26 0 0 2262.52zm-1131.26 -692.33l1131.26 0m-785.1 692.33l0 -2262.52"/>
  </g>
  <g>
   <path class="fil0" d="M1163.83 32.57l-1131.26 0 0 2262.52 1131.26 0 0 -2262.52zm-1131.26 692.33l1131.26 0 -1131.26 0zm346.16 -692.33l0 2262.52 0 -2262.52z"/>
   <path id="_1_0" class="fil1 str0" d="M1163.83 32.57l-1131.26 0 0 2262.52 1131.26 0 0 -2262.52zm-1131.26 692.33l1131.26 0m-785.1 -692.33l0 2262.52"/>
  </g>
  <g>
   <path class="fil0" d="M1163.83 32.57l3393.78 0 0 2262.52 -3393.78 0 0 -2262.52zm3393.78 692.33l-3393.78 0 3393.78 0zm-1038.49 -692.33l0 2262.52 0 -2262.52z"/>
   <path id="_1_1" class="fil1 str0" d="M1163.83 32.57l3393.78 0 0 2262.52 -3393.78 0 0 -2262.52zm3393.78 692.33l-3393.78 0m2355.29 -692.33l0 2262.52"/>
  </g>
  <g>
   <path class="fil0" d="M1163.83 4557.61l3393.78 0 0 -2262.52 -3393.78 0 0 2262.52zm3393.78 -692.33l-3393.78 0 3393.78 0zm-1038.49 692.33l0 -2262.52 0 2262.52z"/>
   <path id="_1_2" class="fil1 str0" d="M1163.83 4557.61l3393.78 0 0 -2262.52 -3393.78 0 0 2262.52zm3393.78 -692.33l-3393.78 0m2355.29 692.33l0 -2262.52"/>
  </g>
 </g>
</svg>
