<?xml version="1.0" encoding="UTF-8"?>
<!DOCTYPE svg PUBLIC "-//W3C//DTD SVG 1.1//EN" "http://www.w3.org/Graphics/SVG/1.1/DTD/svg11.dtd">
<!-- Creator: CorelDRAW -->
<svg xmlns="http://www.w3.org/2000/svg" xml:space="preserve" width="39.5766mm" height="27.9746mm" version="1.1" style="shape-rendering:geometricPrecision; text-rendering:geometricPrecision; image-rendering:optimizeQuality; fill-rule:evenodd; clip-rule:evenodd"
viewBox="0 0 1117.71 790.05"
 xmlns:xlink="http://www.w3.org/1999/xlink"
 xmlns:xodm="http://www.corel.com/coreldraw/odm/2003">
 <defs>
  <style type="text/css">
   <![CDATA[
    .fil1 {fill:#509B89;fill-rule:nonzero}
    .fil0 {fill:white;fill-rule:nonzero}
   ]]>
  </style>
 </defs>
 <g id="Layer_x0020_1">
  <metadata id="CorelCorpID_0Corel-Layer"/>
  <path class="fil0" d="M281.74 403.53l147.23 -308.12 0 323.36 65.94 0 0 -386.52 -91.91 0 -124.88 268.84c-12.55,27.26 -21.85,47.95 -27.76,61.99 -5.19,-12.68 -13.41,-31.76 -24.76,-57.22l-122.71 -273.6 -102.88 0 0 386.52 65.93 0 0 -329.3 144.44 314.06 -200.49 386.52 74.4 0 134.79 -280.9c10.74,-22.49 19.92,-43.54 27.17,-63.25 7.98,21.15 17.27,42.2 27.89,63.25l139.87 280.9 70.04 0 -202.29 -386.52zm470.4 -20c-37.68,-11.96 -68.94,-31.14 -86.13,-53.94 -17.24,-22.85 -25.85,-51.58 -25.85,-86.24 0,-39.73 9.54,-73.06 28.63,-99.75 19.08,-26.69 44.81,-45.53 76.93,-56.28 32.24,-10.87 65.46,-16.3 99.63,-16.3 44.09,0 82.61,6.4 115.47,19.2 32.97,12.8 57.49,32.73 73.79,59.78 16.3,27.05 24.39,56.28 24.39,87.8 0,38.41 -11.08,70.8 -33.22,97.35 -22.18,26.59 -62.58,45.8 -106.31,55.23l-48.65 -119.5 -75.49 0 -43.21 112.65zm-24.65 64.26l-131.17 341.94 72.82 0 56.28 -157.25 218.48 0 60.02 157.25 78.14 0 -135.31 -332.36c56.4,-14.37 96.93,-39.61 126.51,-76.92 29.59,-37.32 44.44,-82.98 44.44,-136.96 0,-55.79 -11.35,-101.21 -34.18,-136.23 -22.71,-35.02 -55.68,-61.6 -98.79,-79.83 -43.24,-18.24 -89.5,-27.42 -139.01,-27.42 -53.99,0 -101.09,10.27 -141.3,30.92 -40.22,20.65 -70.78,50 -91.67,88.04 -20.89,38.04 -31.28,79.95 -31.28,125.6 0,51.93 13.2,95.51 39.62,130.8 26.47,35.36 58.58,58.53 106.4,72.42z"/>
  <path class="fil1" d="M745.6 576.68l176.81 0 -54.11 -143.84c-16.3,-43.73 -28.62,-79.84 -37.2,-108.34 -7.12,33.81 -16.66,67.02 -28.62,99.88l-56.89 152.29z"/>
 </g>
</svg>
