<?xml version="1.0" encoding="UTF-8"?>
<!DOCTYPE svg PUBLIC "-//W3C//DTD SVG 1.1//EN" "http://www.w3.org/Graphics/SVG/1.1/DTD/svg11.dtd">
<!-- Creator: CorelDRAW -->
<svg xmlns="http://www.w3.org/2000/svg" xml:space="preserve" width="51.8563mm" height="49.4425mm" version="1.1" shape-rendering="geometricPrecision" text-rendering="geometricPrecision" image-rendering="optimizeQuality" fill-rule="evenodd" clip-rule="evenodd"
viewBox="0 0 17643.1 16821.9"
 xmlns:xlink="http://www.w3.org/1999/xlink"
 xmlns:xodm="http://www.corel.com/coreldraw/odm/2003">
 <g id="Layer_x0020_1">
  <metadata id="CorelCorpID_0Corel-Layer"/>
  <path fill="#A9B7C6" stroke="black" stroke-width="68" stroke-miterlimit="22.9256" d="M4355 34l8933.2 0c2379.9,0 4320.9,1941.1 4320.9,4320.9l0 8112c0,2379.9 -1941.1,4320.9 -4320.9,4320.9l-8933.2 0c-2379.9,0 -4320.9,-1941.1 -4320.9,-4320.9l0 -8112c0,-2379.9 1941.1,-4320.9 4320.9,-4320.9z"/>
  <path fill="white" fill-rule="nonzero" d="M5483.2 8513.4l1773.7 -3712 0 3895.5 794.4 0 0 -4656.4 -1107.3 0 -1504.4 3238.7c-151.2,328.4 -263.2,577.7 -334.5,746.8 -62.6,-152.8 -161.5,-382.6 -298.3,-689.4l-1478.3 -3296.1 -1239.5 0 0 4656.4 794.2 0 0 -3967.1 1740 3783.5 -2415.3 4656.4 896.3 0 1623.9 -3384c129.4,-271 239.9,-524.5 327.3,-762 96.1,254.8 208.1,508.4 336,762l1685 3384 843.8 0 -2437 -4656.4zm5667 -241c-454,-144.1 -830.5,-375.2 -1037.6,-649.8 -207.6,-275.3 -311.4,-621.3 -311.4,-1038.9 0,-478.6 115,-880.2 344.9,-1201.7 229.8,-321.6 539.8,-548.5 926.8,-678 388.4,-131 788.6,-196.4 1200.3,-196.4 531.1,0 995.2,77.1 1391,231.3 397.2,154.2 692.6,394.4 889,720.2 196.4,325.9 293.9,678 293.9,1057.8 0,462.7 -133.4,853 -400.2,1172.7 -267.3,320.3 -753.9,551.7 -1280.7,665.3l-586 -1439.6 -909.4 0 -520.6 1357.1zm-297 774.1l-1580.2 4119.3 877.3 0 678 -1894.4 2632 0 723.1 1894.4 941.4 0 -1630.1 -4004c679.5,-173.1 1167.7,-477.2 1524,-926.7 356.4,-449.6 535.4,-999.6 535.4,-1650 0,-672.2 -136.7,-1219.3 -411.7,-1641.2 -273.5,-421.9 -670.8,-742 -1190.2,-961.7 -520.9,-219.7 -1078.2,-330.4 -1674.7,-330.4 -650.4,0 -1217.8,123.7 -1702.3,372.5 -484.5,248.8 -852.7,602.3 -1104.4,1060.7 -251.7,458.3 -376.8,963.1 -376.8,1513.1 0,625.7 159,1150.7 477.3,1575.8 318.9,426 705.7,705.2 1281.8,872.5z"/>
  <path fill="#A9B7C6" fill-rule="nonzero" d="M11071.3 10599.4l2130.1 0 -651.8 -1732.8c-196.4,-526.8 -344.8,-961.8 -448.1,-1305.1 -85.8,407.4 -200.7,807.4 -344.8,1203.3l-685.3 1834.7z"/>
 </g>
</svg>
